{"title":"Saheb Bibi Ghulam Bengali Movie DvD RiP_ {385 Mb}-[x264,MPEG Aud","uid":8736163,"size":403550677,"categoryP":"video","categoryS":"movies","magnet":"?xt=urn:btih:e21dc86bd293121c3df62a6141c11f094c7a036e&amp;dn=Saheb+Bibi+Ghulam+Bengali+Movie+DvD+RiP_+%7B385+Mb%7D-%5Bx264%2CMPEG+Aud&amp;tr=udp%3A%2F%2Ftracker.openbittorrent.com%3A80&amp;tr=udp%3A%2F%2Fopen.demonii.com%3A1337&amp;tr=udp%3A%2F%2Ftracker.coppersurfer.tk%3A6969&amp;tr=udp%3A%2F%2Fexodus.desync.com%3A6969","seeders":1,"leechers":0,"uploader":"shilpa143","files":1,"time":1374687056,"description":"[img]http://s22.postimg.org/8vf4yqxu9/718i_DS8_Ba_IL.jpg[/img]\n\n[img]http://i.cubeupload.com/8K6BPX.png[/img]\n\nMovie             :     Saheb Bibi Golam (1956)\n\nReleased on       :     1956 (India)\n\nRatings           :     8.2/10 from 20 users  \n\nDirector          :     Kartick Chattopadhyay\n\nWriter            :     Bimal Mitra (story)\n\n\nLanguage          :     Bengali \n\n\nColor             :     Black and White \n\nStars             :     Sumitra Devi, Uttam Kumar, Chhabi Biswas\n\nImdb Link         :     www.imdb.com/title/tt2073070 \n\n\nStory Line        :\n\nA Zamindar neglects his wife and prefers the company of alcohol and dancing girls. The decadence of the Bangali Zamindar milieu and the raising bourgeoisie in the late 19th century, seen through the eyes of a young upward mobile rustic seeking fortune in Calcutta, and fascinated by the lady of the house... \n\n\n[img]http://i.cubeupload.com/TaXMhY.png[/img]\n\n[code]General\nComplete name                            : Saheb Bibi Ghulam Bengali Movie DvD RiP\nFormat                                   : Matroska\nFormat version                           : Version 4 / Version 2\nFile size                                : 385 MiB\nDuration                                 : 2h 25mn\nOverall bit rate                         : 369 Kbps\nMovie name                               : @shilpa143\nEncoded date                             : UTC 2013-07-14 17:58:58\nWriting application                      : mkvmerge v6.1.0 ('Old Devil') built on Mar  2 2013 14:32:37\nWriting library                          : Lavf54.63.104\n\nVideo\nID                                       : 1\nFormat                                   : AVC\nFormat/Info                              : Advanced Video Codec\nFormat profile                           : &lt;a class=&quot;__cf_email__&quot; href=&quot;/cdn-cgi/l/email-protection&quot; data-cfemail=&quot;3870515f5078740a1609&quot;&gt;[email&amp;#160;protected]&lt;/a&gt;&lt;script cf-hash='f9e31' type=&quot;text/javascript&quot;&gt;\n/* &lt;![CDATA[ */!function(){try{var t=&quot;currentScript&quot;in document?document.currentScript:function(){for(var t=document.getElementsByTagName(&quot;script&quot;),e=t.length;e--;)if(t[e].getAttribute(&quot;cf-hash&quot;))return t[e]}();if(t&amp;&amp;t.previousSibling){var e,r,n,i,c=t.previousSibling,a=c.getAttribute(&quot;data-cfemail&quot;);if(a){for(e=&quot;&quot;,r=parseInt(a.substr(0,2),16),n=2;a.length-n;n+=2)i=parseInt(a.substr(n,2),16)^r,e+=String.fromCharCode(i);e=document.createTextNode(e),c.parentNode.replaceChild(e,c)}}}catch(u){}}();/* ]]&gt; */&lt;/script&gt;\nFormat settings, CABAC                   : Yes\nFormat settings, ReFrames                : 1 frame\nCodec ID                                 : V_MPEG4/ISO/AVC\nDuration                                 : 2h 25mn\nBit rate                                 : 175 Kbps\nWidth                                    : 384 pixels\nHeight                                   : 288 pixels\nDisplay aspect ratio                     : 2.35:1\nOriginal display aspect ratio            : 4:3\nFrame rate mode                          : Constant\nFrame rate                               : 30.000 fps\nColor space                              : YUV\nChroma subsampling                       : 4:2:0\nBit depth                                : 8 bits\nScan type                                : Progressive\nBits/(Pixel*Frame)                       : 0.053\nStream size                              : 177 MiB (46%)\nWriting library                          : x264 core 129\nLanguage                                 : Bengali\nDefault                                  : Yes\nForced                                   : No\n\nAudio\nID                                       : 2\nFormat                                   : MPEG Audio\nFormat version                           : Version 1\nFormat profile                           : Layer 3\nMode                                     : Joint stereo\nMode extension                           : MS Stereo\nCodec ID                                 : A_MPEG/L3\nCodec ID/Hint                            : MP3\nDuration                                 : 2h 25mn\nBit rate mode                            : Constant\nBit rate                                 : 192 Kbps\nChannel(s)                               : 2 channels\nSampling rate                            : 44.1 KHz\nCompression mode                         : Lossy\nStream size                              : 200 MiB (52%)\nLanguage                                 : Bengali\nDefault                                  : Yes\nForced                                   : No\n[/code]\n\n[img]http://i.cubeupload.com/eh1EHE.png[/img]\n\n[img]http://s22.postimg.org/nd7qszzrl/Saheb_Bibi_Ghulam_Bengali_Movie_Dv_D_Ri_P.jpg[/img]\n\n[img]http://s22.postimg.org/lk5ao1vip/cooltext1123245186.png[/img]","torrent":{"xt":"urn:btih:e21dc86bd293121c3df62a6141c11f094c7a036e","amp;dn":"Saheb+Bibi+Ghulam+Bengali+Movie+DvD+RiP_+%7B385+Mb%7D-%5Bx264%2CMPEG+Aud","amp;tr":["udp%3A%2F%2Ftracker.openbittorrent.com%3A80","udp%3A%2F%2Fopen.demonii.com%3A1337","udp%3A%2F%2Ftracker.coppersurfer.tk%3A6969","udp%3A%2F%2Fexodus.desync.com%3A6969"],"infoHash":"e21dc86bd293121c3df62a6141c11f094c7a036e","infoHashBuffer":{"type":"Buffer","data":[226,29,200,107,210,147,18,28,61,246,42,97,65,193,31,9,76,122,3,110]},"announce":[],"urlList":[]}}